<?xml version="1.0" standalone="no"?>
<!DOCTYPE svg PUBLIC "-//W3C//DTD SVG 20010904//EN"
        "http://www.w3.org/TR/2001/REC-SVG-20010904/DTD/svg10.dtd">
<svg version="1.0" xmlns="http://www.w3.org/2000/svg"
     width="1372.000000pt" height="1379.000000pt" viewBox="0 0 1372.000000 1379.000000"
     preserveAspectRatio="xMidYMid meet">
    <metadata>
        Created by potrace 1.15, written by Peter Selinger 2001-2017
    </metadata>
    <g transform="translate(0.000000,1379.000000) scale(0.100000,-0.100000)"
       fill="#000000" stroke="none">
        <path d="M6465 11443 c-189 -17 -441 -94 -483 -148 -16 -20 -26 -24 -45 -20
-68 17 -348 -52 -502 -124 -120 -56 -264 -142 -370 -220 -52 -39 -91 -63 -88
-53 6 15 5 16 -13 2 -77 -58 -150 -131 -271 -266 -233 -262 -338 -415 -500
-730 l-93 -181 -47 46 c-27 25 -81 63 -120 84 -64 33 -80 38 -127 34 -63 -5
-99 -29 -179 -120 -167 -191 -345 -491 -441 -742 -21 -55 -47 -118 -57 -140
-37 -80 -90 -343 -165 -806 -92 -579 -96 -598 -138 -674 -85 -150 -276 -422
-342 -486 -191 -185 -353 -257 -385 -172 -15 41 10 161 44 211 16 24 26 46 22
50 -11 11 -68 -63 -110 -141 l-38 -71 10 -93 c5 -51 13 -96 17 -100 10 -10
202 60 281 103 108 60 334 263 448 404 33 41 57 65 53 54 -17 -53 -57 -250
-72 -349 -11 -76 -15 -150 -12 -239 l5 -128 -80 -137 c-113 -191 -255 -473
-315 -628 l-52 -131 64 -155 c117 -280 265 -560 430 -812 78 -119 85 -127 83
-93 -1 20 -5 34 -8 32 -5 -3 -31 65 -35 91 0 6 -17 44 -37 85 -19 41 -38 87
-42 101 -6 26 -5 27 31 27 21 0 79 6 130 13 76 10 96 10 108 -1 34 -27 9 -130
-49 -206 -26 -34 -70 -51 -90 -34 -9 7 -16 5 -26 -7 -7 -10 -9 -15 -4 -10 4 4
16 0 26 -9 13 -12 28 -15 51 -10 18 4 42 8 53 8 11 1 25 9 32 17 11 14 12 12
13 -12 0 -16 4 -26 10 -22 6 3 10 18 10 33 0 20 16 42 59 84 70 67 137 162
158 224 23 67 13 141 -21 171 -53 45 -139 29 -338 -67 -69 -33 -135 -60 -146
-60 -29 0 -80 46 -99 89 -24 55 -28 282 -9 471 48 452 167 922 304 1195 37 75
112 198 118 193 1 -2 -3 -46 -11 -99 -32 -234 -28 -444 11 -522 9 -18 38 -54
65 -82 l48 -50 10 -102 c12 -112 39 -199 74 -230 35 -32 100 -64 107 -52 4 5
14 7 24 3 9 -4 43 -1 75 6 50 10 62 10 90 -4 61 -32 62 -102 2 -141 -85 -54
-201 -59 -285 -12 -47 26 -77 19 -37 -9 12 -9 30 -33 42 -55 26 -51 71 -79
129 -79 59 0 137 51 244 160 44 44 80 79 81 78 16 -19 55 -83 55 -92 0 -6 -40
-52 -90 -103 -73 -76 -92 -102 -104 -144 -20 -67 -20 -138 0 -167 14 -21 52
-33 39 -12 -3 5 15 1 41 -11 59 -25 194 -37 194 -17 0 7 -21 20 -47 28 -74 23
-76 43 -25 198 22 70 44 150 48 177 4 29 16 61 30 77 32 39 47 89 35 120 -12
31 -55 63 -98 72 l-31 7 1 84 2 83 30 -57 c41 -77 138 -173 191 -189 56 -16
84 -15 84 3 0 8 -7 15 -16 15 -63 0 -214 223 -268 395 -42 133 -84 322 -106
472 -19 132 -19 183 0 208 4 6 11 44 15 85 l8 75 33 -115 c68 -233 151 -402
268 -552 54 -68 78 -64 28 5 -34 48 -85 147 -79 153 2 2 21 -22 43 -53 40 -60
249 -272 268 -274 8 0 85 -143 124 -231 2 -5 -9 -13 -25 -19 -67 -25 -103 -85
-103 -171 0 -84 24 -119 115 -174 15 -8 19 -27 22 -120 5 -170 23 -474 31
-529 5 -36 3 -64 -9 -100 -10 -27 -23 -99 -30 -160 -7 -60 -16 -115 -20 -121
-11 -14 -9 -144 1 -144 5 0 20 -23 34 -52 l25 -52 -34 -30 c-20 -19 -36 -43
-38 -61 -3 -16 -24 -61 -48 -100 -23 -38 -56 -99 -73 -135 -30 -62 -31 -70
-29 -178 3 -100 -2 -138 -42 -334 -25 -121 -45 -225 -45 -232 0 -11 165 -118
317 -205 40 -23 152 -81 250 -129 1441 -710 3147 -654 4549 148 466 267 910
635 1269 1052 90 105 295 369 295 381 0 11 -68 105 -73 101 -3 -3 -29 29 -58
71 -30 42 -82 115 -117 162 -35 46 -88 125 -118 175 -30 50 -62 97 -70 105 -8
8 -19 23 -24 33 -6 11 -28 24 -49 30 -36 9 -38 13 -50 65 -12 55 -115 274
-165 354 -20 32 -56 152 -56 187 0 3 -8 3 -19 -1 -10 -3 -67 -7 -127 -9 -60
-2 -140 -11 -179 -20 -67 -16 -70 -16 -95 3 -47 34 -178 97 -283 134 -10 4
-15 12 -11 18 3 6 8 28 9 48 2 20 8 79 14 131 6 52 11 133 11 179 l0 84 30
-42 c51 -69 82 -83 170 -76 41 4 103 8 138 8 61 2 65 1 97 -35 75 -81 71 -213
-10 -366 -34 -63 -19 -75 18 -16 58 93 80 153 83 228 2 39 6 91 10 116 7 52
-9 121 -33 146 -17 17 -38 17 -195 -1 -44 -5 -51 -2 -87 30 -47 42 -83 116
-111 224 -26 101 -25 117 1 64 24 -49 44 -57 35 -15 -30 143 -34 297 -6 297 8
0 24 -16 36 -35 25 -40 72 -90 85 -90 16 0 10 28 -7 34 -11 4 -14 13 -11 27 4
13 -1 24 -14 32 -10 6 -26 32 -34 58 -15 44 -15 47 14 110 17 35 30 57 31 49
0 -8 11 -37 24 -65 14 -27 32 -71 41 -97 10 -26 32 -64 50 -85 17 -21 40 -63
50 -93 32 -99 122 -260 145 -260 5 0 -10 39 -34 88 -78 154 -129 337 -157 562
-15 114 -16 370 -5 650 6 140 5 249 -3 345 -11 132 -45 396 -57 440 -8 28 60
-84 106 -174 167 -335 318 -902 360 -1361 25 -264 1 -657 -46 -768 -17 -39
-18 -56 -3 -47 14 9 52 97 77 180 92 301 34 949 -140 1570 -173 620 -508 1399
-784 1823 -29 45 -51 82 -49 82 3 0 31 -15 63 -32 223 -126 549 -447 729 -718
182 -274 349 -719 442 -1179 41 -201 60 -357 67 -551 11 -284 -18 -515 -90
-714 -39 -106 -47 -151 -22 -126 30 31 126 329 126 389 0 12 4 21 8 21 5 0 15
33 22 73 7 39 19 92 27 116 12 36 13 75 4 250 -6 113 -18 247 -26 296 -27 162
-19 154 50 -50 27 -77 56 -151 66 -165 10 -14 37 -92 59 -175 63 -228 88 -298
129 -362 56 -85 105 -138 120 -129 10 6 8 13 -7 30 -40 45 -34 49 12 8 26 -24
70 -54 99 -68 98 -45 247 -25 321 44 17 16 52 40 78 54 48 27 83 27 151 -1 16
-6 39 -11 53 -11 32 0 32 28 0 36 -16 4 -23 11 -19 20 4 10 -3 14 -26 14 -40
0 -92 46 -94 83 -1 16 -7 25 -14 23 -44 -17 -51 298 -8 330 8 6 15 16 15 22 0
6 20 34 44 61 115 129 143 307 77 481 -16 43 -17 50 -4 50 11 0 14 7 10 23 -3
12 -13 68 -22 124 -20 112 -20 113 -101 113 l-41 0 -54 106 c-57 111 -151 238
-222 299 -110 95 -278 186 -467 255 -108 38 -117 44 -142 83 -14 23 -112 190
-217 370 -285 489 -449 743 -588 909 -250 298 -483 536 -604 617 -101 68 -209
115 -302 131 -67 12 -157 6 -157 -9 0 -5 -16 -19 -35 -32 -49 -34 -101 -106
-118 -164 -8 -27 -18 -48 -23 -46 -5 2 -72 45 -149 96 -499 328 -915 517
-1255 569 -219 34 -540 52 -685 39z m4318 -2684 c93 -48 203 -130 248 -186 53
-66 126 -177 159 -243 l23 -44 -39 29 c-132 99 -284 244 -318 304 -5 9 -30 41
-55 71 -87 103 -87 103 -18 69z m-238 -321 c8 -18 14 -27 15 -20 0 8 24 -7 53
-33 146 -132 346 -239 524 -281 65 -15 121 -32 125 -38 11 -16 10 -134 -3
-202 -19 -107 -47 -188 -70 -203 -17 -10 -19 -15 -9 -21 11 -6 7 -19 -18 -56
-17 -26 -28 -52 -25 -57 8 -13 51 31 89 90 33 50 65 78 77 67 18 -18 124 140
154 230 l13 41 -6 -40 c-3 -21 -12 -52 -20 -67 -20 -39 -18 -55 6 -33 10 9 27
40 36 67 9 27 18 47 20 45 13 -12 34 -171 34 -251 0 -111 -28 -234 -64 -276
-37 -44 -86 -173 -98 -258 -14 -98 -1 -148 53 -207 21 -23 39 -45 39 -48 0
-13 -87 -29 -150 -29 -188 2 -349 149 -502 457 -62 125 -75 169 -93 330 -37
333 -94 575 -182 773 -12 28 -20 52 -17 52 3 0 11 -15 19 -32z m-7030 -1511
c20 -102 25 -157 25 -280 0 -148 -1 -154 -30 -216 -17 -35 -54 -100 -84 -145
-69 -105 -86 -139 -86 -173 l-1 -28 -28 31 c-35 38 -71 131 -71 182 0 60 39
306 71 454 35 159 64 261 116 402 l37 101 13 -100 c7 -55 24 -157 38 -228z
m727 -262 c20 -38 48 -106 63 -150 15 -44 36 -96 46 -116 41 -82 101 -247 115
-318 8 -42 17 -87 20 -101 5 -22 3 -21 -20 10 -95 132 -169 288 -250 532 -50
152 -147 508 -146 539 1 8 32 -62 69 -156 37 -93 84 -201 103 -240z m5031 254
l-2 -151 -55 -166 c-63 -194 -72 -238 -82 -387 -7 -124 -12 -121 -44 26 -40
180 -35 392 12 501 11 27 18 51 15 54 -7 7 61 175 79 193 22 24 24 9 3 -49
-21 -60 -23 -74 -10 -66 4 3 19 34 31 68 21 58 50 128 54 128 0 0 0 -68 -1
-151z m-5559 -714 c30 -105 31 -113 13 -103 -24 13 -97 4 -137 -17 -49 -25
-60 -20 -60 28 1 52 42 255 65 317 9 25 19 74 22 110 l7 65 28 -143 c16 -79
44 -194 62 -257z m1439 126 c97 -145 227 -321 289 -392 l46 -54 -56 -22 c-30
-13 -56 -22 -57 -20 -14 16 -133 232 -187 341 -68 135 -151 322 -125 282 6
-11 47 -72 90 -135z m-583 -159 c47 -82 125 -197 187 -275 30 -38 53 -70 51
-71 -1 -1 -28 -12 -58 -23 -30 -12 -62 -24 -70 -27 -12 -5 -15 2 -14 31 1 21
5 46 9 56 11 25 3 28 -34 14 -22 -8 -34 -8 -39 -1 -4 5 -24 20 -44 33 -34 20
-37 26 -30 49 9 33 9 205 -1 250 -9 45 5 34 43 -36z m-91 -344 c16 -24 43 -58
61 -77 17 -18 30 -35 28 -36 -37 -32 -138 -102 -142 -97 -3 3 -6 -2 -6 -12 0
-28 -39 0 -57 41 -25 60 11 185 59 209 13 7 24 12 25 13 1 0 15 -18 32 -41z"/>
        <path d="M11666 7295 c-48 -120 -45 -233 8 -300 l23 -28 6 154 c3 85 2 174 -1
199 l-7 45 -29 -70z"/>
        <path d="M3194 4441 c4 -6 0 -11 -9 -11 -9 0 -28 -12 -42 -27 -15 -16 -23 -22
-18 -14 5 10 4 12 -4 7 -6 -4 -8 -12 -5 -18 4 -6 -6 -23 -22 -37 -17 -14 -25
-24 -19 -21 6 3 -1 -6 -15 -19 -14 -13 -19 -20 -13 -17 9 5 11 2 7 -8 -3 -9
-10 -13 -15 -10 -5 3 -6 -3 -2 -12 5 -13 3 -15 -8 -9 -16 10 34 -54 141 -178
l75 -88 3 198 c3 208 -3 244 -41 264 -14 8 -18 8 -13 0z"/>
    </g>
</svg>
