<?xml version="1.0" encoding="UTF-8" standalone="no"?><svg xmlns:dc="http://purl.org/dc/elements/1.1/" xmlns:cc="http://creativecommons.org/ns#" xmlns:rdf="http://www.w3.org/1999/02/22-rdf-syntax-ns#" xmlns:svg="http://www.w3.org/2000/svg" xmlns="http://www.w3.org/2000/svg" xmlns:inkscape="http://www.inkscape.org/namespaces/inkscape" version="1.1" width="216" height="84"><path style="font-size:85.3333px;font-family:'Arial Rounded MT';fill:#65c1b9;" d="m 22.96464,24.002635 9.642663,38.911984 q 0.938666,3.583999 1.535999,5.375998 0.597334,1.791999 1.792,2.986665 1.023999,1.024 2.389332,1.450666 1.450666,0.426667 2.645332,0.426667 3.071999,0 4.693332,-1.621333 1.194666,-1.194666 1.877332,-3.071999 0.768,-1.877332 1.706666,-5.546664 l 9.642663,-38.911984 v 39.59465 q 0,3.071999 0.170666,4.863998 0.256,1.792 1.450666,2.986666 1.706666,1.706666 4.181332,1.706666 1.535999,0 2.559999,-0.597333 1.024,-0.597333 1.706666,-1.194666 1.109333,-1.194667 1.279999,-2.901333 0.170667,-1.706666 0.170667,-4.863998 V 19.309304 q 0,-2.047999 -0.256,-3.583999 -0.170667,-1.535999 -1.450666,-2.901332 -1.279999,-1.365332 -2.815999,-1.535999 -1.535999,-0.256 -3.242665,-0.256 h -3.754665 q -2.559999,0 -4.095999,0.341333 -1.535999,0.341333 -2.474665,1.28 -0.853333,0.853333 -1.365333,2.474665 -0.512,1.536 -1.194666,4.095999 l -8.78933,33.450652 -8.874663,-33.450652 q -0.682666,-2.559999 -1.279999,-4.095999 -0.512,-1.621332 -1.450666,-2.474665 -0.853333,-0.938667 -2.389333,-1.28 -1.450666,-0.341333 -4.010665,-0.341333 h -3.754665 q -1.791999,0 -3.242665,0.341333 -1.450666,0.256 -2.474666,1.109333 -1.023999,0.853333 -1.535999,2.559999 -0.512,1.621333 -0.512,4.266665 v 44.287981 q 0,3.071999 0.170667,4.863998 0.170666,1.792 1.365333,2.986666 1.706666,1.706666 4.181331,1.706666 1.450666,0 2.474666,-0.597333 1.109333,-0.597333 1.706666,-1.194666 1.194666,-1.194667 1.365333,-2.901333 0.255999,-1.706666 0.255999,-4.863998 z" /><path style="fill:#65c1b9;" d="m 93.789941,36.205297 q 0,-1.962666 -0.08533,-3.583999 -0.08533,-1.621332 -0.682667,-2.901332 -0.426666,-1.023999 -1.791999,-1.877332 -1.365333,-0.938667 -3.157332,-0.938667 -1.28,0 -2.303999,0.512 -1.024,0.512 -1.791999,1.194666 -1.194667,1.194667 -1.365333,2.901333 -0.170667,1.706665 -0.170667,4.778664 v 27.477322 q 0,2.986665 0.170667,4.778665 0.170666,1.706666 1.365333,2.815999 1.791999,1.791999 4.181331,1.791999 1.365333,0 2.389333,-0.597333 1.023999,-0.512 1.706665,-1.194666 1.194667,-1.109333 1.365333,-2.815999 0.170667,-1.792 0.170667,-4.778665 z M 93.619274,16.066639 q 0,-2.218666 -1.621332,-3.839999 -1.621333,-1.706666 -3.839999,-1.706666 -2.303999,0 -3.925332,1.706666 -1.621332,1.621333 -1.621332,3.839999 0,2.303999 1.621332,3.925331 1.621333,1.621333 3.925332,1.621333 2.218666,0 3.839999,-1.621333 1.621332,-1.621332 1.621332,-3.925331 z" /><path style="fill:#d6b19c;" d="m 105.52194,63.767952 q 0,2.730666 0.0853,4.095998 0.0853,1.28 0.68267,2.474666 0.51199,1.194666 1.96266,1.962666 1.45067,0.853333 2.98667,0.853333 1.70666,0 3.072,-0.938666 1.36533,-0.938667 1.79199,-1.877333 0.59734,-1.194666 0.68267,-2.730666 0.0853,-1.535999 0.0853,-4.266664 v -6.570664 q 0,-4.010665 0.17067,-7.594664 0.256,-3.669332 1.10933,-6.399997 0.85334,-2.815999 2.47467,-4.437332 1.62133,-1.621332 4.352,-1.621332 2.21866,0 4.01066,0.767999 1.792,0.682667 3.328,0.682667 1.45067,0 2.90133,-1.194666 1.536,-1.28 1.536,-3.583999 0,-1.877332 -1.28,-3.071999 -1.28,-1.279999 -3.072,-2.047999 -1.70666,-0.767999 -3.41333,-1.023999 -1.70666,-0.341334 -2.56,-0.341334 -2.21866,0 -3.75466,0.682667 -1.536,0.597333 -2.64533,1.621332 -1.10934,1.024 -1.96267,2.304 -0.768,1.279999 -1.45067,2.474665 0,-0.768 -0.17066,-1.962666 -0.0853,-1.279999 -0.68267,-2.389332 -0.512,-1.109333 -1.62133,-1.877333 -1.024,-0.853333 -2.98667,-0.853333 -2.13333,0 -3.328,0.938667 -1.10933,0.853333 -1.62133,2.133332 -0.512,1.28 -0.59733,2.559999 -0.0853,1.28 -0.0853,2.047999 z" /><path style="fill:#d6b19c;" d="m 169.63118,66.754617 q 1.45067,2.474666 3.24267,4.437332 1.792,1.962666 4.01066,1.962666 1.96267,0 3.584,-1.28 1.62134,-1.365332 1.62134,-3.242665 0,-0.853333 -0.17067,-1.621333 -0.17067,-0.853333 -0.85333,-2.730665 -0.93867,-2.474666 -1.10934,-4.607998 -0.17066,-2.133333 -0.0853,-3.925332 l 0.256,-10.666662 q 0.0853,-4.181332 -0.59733,-7.50933 -0.59734,-3.327999 -2.73067,-5.717331 -2.13333,-2.389333 -6.05866,-3.669332 -3.92533,-1.28 -10.41067,-1.28 -5.29066,0 -8.36266,0.853333 -2.98666,0.768 -5.12,2.048 -1.024,0.597333 -2.21866,1.621332 -1.10934,0.938666 -2.048,2.133333 -0.93867,1.194666 -1.536,2.645332 -0.59733,1.450666 -0.59733,3.071999 0,2.133332 1.536,3.242665 1.62133,1.023999 3.15733,1.023999 2.21866,0 3.24266,-1.279999 1.024,-1.279999 2.13334,-3.242665 0.85333,-1.536 2.38933,-2.389333 1.536,-0.938666 3.072,-1.365332 1.536,-0.426667 2.816,-0.512 1.36533,-0.08533 1.87733,-0.08533 2.90133,0 4.52266,0.853333 1.62134,0.767999 2.38933,2.047999 0.768,1.194666 0.93867,2.815998 0.17067,1.536 0.256,3.071999 -3.072,0.853333 -5.54666,1.450666 -2.47467,0.597333 -4.77867,1.109333 -2.21866,0.426667 -4.43733,0.938666 -2.13333,0.426667 -4.52266,1.024 -1.792,0.512 -3.75467,1.450666 -1.96267,0.853333 -3.584,2.303999 -1.62133,1.450666 -2.73066,3.583999 -1.024,2.047999 -1.024,4.949331 0,1.962666 0.68266,4.266665 0.768,2.218665 2.47467,4.181331 1.792,1.877333 4.69333,3.157332 2.98667,1.28 7.424,1.28 4.69333,0 8.44799,-1.791999 3.84,-1.792 7.50933,-4.607999 z m -0.768,-16.469326 q 0,1.706666 -0.0853,4.095998 0,2.389333 -0.68267,4.351998 -1.19466,3.327999 -4.35199,5.205332 -3.15734,1.791999 -6.57067,1.791999 -2.13333,0 -3.584,-0.597333 -1.45066,-0.682667 -2.304,-1.621333 -0.85333,-1.023999 -1.19466,-2.047999 -0.34133,-1.109333 -0.34133,-1.962666 0,-1.535999 0.59733,-2.559999 0.68267,-1.109333 2.13333,-1.962666 1.45067,-0.853333 3.75467,-1.450666 2.38933,-0.682666 5.71733,-1.365332 1.28,-0.256 3.15733,-0.682667 1.96267,-0.512 3.75466,-1.194666 z" /><path id="path878" style="fill:#d6b19c;" d="m 202.95656,36.205297 q 0,-1.962666 -0.0853,-3.583999 -0.0853,-1.621332 -0.68267,-2.901332 -0.42667,-1.023999 -1.792,-1.877332 -1.36533,-0.938667 -3.15733,-0.938667 -1.28,0 -2.304,0.512 -1.024,0.512 -1.792,1.194666 -1.19467,1.194667 -1.36533,2.901333 -0.17067,1.706665 -0.17067,4.778664 v 27.477322 q 0,2.986665 0.17067,4.778665 0.17066,1.706666 1.36533,2.815999 1.792,1.791999 4.18133,1.791999 1.36533,0 2.38933,-0.597333 1.024,-0.512 1.70667,-1.194666 1.19467,-1.109333 1.36533,-2.815999 0.17067,-1.792 0.17067,-4.778665 z m -0.17067,-20.138658 q 0,-2.218666 -1.62133,-3.839999 -1.62133,-1.706666 -3.84,-1.706666 -2.304,0 -3.92533,1.706666 -1.62133,1.621333 -1.62133,3.839999 0,2.303999 1.62133,3.925331 1.62133,1.621333 3.92533,1.621333 2.21867,0 3.84,-1.621333 1.62133,-1.621332 1.62133,-3.925331 z" /></svg> 